<?xml version="1.0" encoding="utf-8"?>
<!-- Generator: Adobe Illustrator 16.0.3, SVG Export Plug-In . SVG Version: 6.00 Build 0)  -->
<!DOCTYPE svg PUBLIC "-//W3C//DTD SVG 1.1//EN" "http://www.w3.org/Graphics/SVG/1.1/DTD/svg11.dtd">
<svg version="1.1" id="Capa_1" xmlns="http://www.w3.org/2000/svg" xmlns:xlink="http://www.w3.org/1999/xlink" x="0px" y="0px"
	 width="64px" height="64px" viewBox="0 0 64 64" enable-background="new 0 0 64 64" xml:space="preserve">
<g id="Capa_2">
	<g id="Capa_1-2">
		<path fill="#5B5B5B" d="M20.8,53.4h21.9l0,0v8.2l0,0H18.4l0,0v-5.8C18.4,54.4,19.5,53.4,20.8,53.4L20.8,53.4L20.8,53.4z"/>
		<path fill="#5B5B5B" d="M40.2,62.7H16.5c-2.1,0-3.7-1.7-3.7-3.7v-4.2c0-3.6,2.9-6.6,6.6-6.6h18c3.6,0,6.6,2.9,6.6,6.6V59
			C43.9,61,42.2,62.7,40.2,62.7z M19.4,50.6c-2.3,0-4.2,1.9-4.2,4.2V59c0,0.8,0.6,1.4,1.4,1.4h23.7c0.8,0,1.4-0.6,1.4-1.4v-4.2
			c0-2.3-1.9-4.2-4.2-4.2H19.4z"/>
		<path fill="#5B5B5B" d="M26.9,45.7c-0.2,0-0.4,0-0.5-0.1c-0.3-0.1-0.5-0.4-0.6-0.7c-2.2-8.1-1.4-16.8,2.3-24.4
			c5.3-10.6,14.4-15.1,18-16.6c0.3-0.1,0.7-0.1,0.9,0c0.3,0.1,0.5,0.4,0.6,0.7c1.4,5,1.6,10.2,0.7,15.4c-0.1,0.4-0.4,0.8-0.8,0.9
			l-5.7,1.9c-0.6,0.2-1.3-0.1-1.5-0.7c-0.2-0.6,0.1-1.3,0.7-1.5c0,0,0,0,0,0l5.1-1.7c0.6-4.1,0.5-8.3-0.4-12.3
			c-14,6.2-21.6,21.6-18,36.5c3.6-1.2,12.8-4.9,17.2-17.7c0.2-0.6,0.9-0.9,1.5-0.7c0.6,0.2,0.9,0.9,0.7,1.5
			c-5,14.5-15.6,18.1-19.1,19.3c-0.3,0.1-0.5,0.2-0.7,0.3C27.2,45.7,27.1,45.7,26.9,45.7z"/>
		<path fill="#5B5B5B" d="M23.7,56.6c-0.1,0-0.2,0-0.3,0c-0.6-0.2-1-0.8-0.8-1.4c0,0,0,0,0,0c1.5-5.3,2.6-8.4,5-14.5
			c2.2-5.6,4.7-11.1,7.6-16.4c0.3-0.6,1-0.8,1.6-0.5c0.6,0.3,0.8,1,0.5,1.6c-2.8,5.3-5.3,10.7-7.4,16.2c-2.4,6-3.5,9.1-4.9,14.3
			C24.7,56.3,24.3,56.6,23.7,56.6z"/>
	</g>
</g>
</svg>
