<?xml version="1.0" encoding="utf-8"?>
<!-- Generator: Adobe Illustrator 16.0.3, SVG Export Plug-In . SVG Version: 6.00 Build 0)  -->
<!DOCTYPE svg PUBLIC "-//W3C//DTD SVG 1.1//EN" "http://www.w3.org/Graphics/SVG/1.1/DTD/svg11.dtd">
<svg version="1.1" id="Capa_1" xmlns="http://www.w3.org/2000/svg" xmlns:xlink="http://www.w3.org/1999/xlink" x="0px" y="0px"
	 width="64px" height="64px" viewBox="0 0 64 64" enable-background="new 0 0 64 64" xml:space="preserve">
<g id="Capa_2">
	<g id="Capa_1-2">
		<path fill="#686868" d="M46.2,7.1c-5.3,0-10.4,3.8-13.3,6.4c-2.9-2.7-7.9-6.4-13.3-6.4c-10,0-16.1,6.1-16.1,15.9
			c0,8.3,7.5,14.9,7.5,14.9l19.8,19c1.2,1.2,3.1,1.2,4.3,0l19.8-19l0,0c1.8-1.7,7.5-7.8,7.5-14.9C62.4,13.2,56.1,7.1,46.2,7.1z
			 M53.4,36.4l-19.8,19c-0.4,0.4-0.9,0.4-1.3,0L12.6,36.3c-1.2-1.2-2.3-2.3-3.3-3.8l-1.4-2.1c-1.2-2.2-2.2-4.8-2.2-7.5
			c0-8.7,5.1-13.8,14-13.8c5.1,0,10,4,12.5,6.5l0.8,0.8l0.8-0.8c2.5-2.5,7.4-6.5,12.5-6.5c8.8,0.1,14,5.1,14,13.9
			C60.3,29.3,55,34.9,53.4,36.4z"/>
		<path fill="#686868" d="M45.7,30.7H30.8l-3.6-4.2c-0.4-0.4-0.8-0.5-1.3-0.4c-0.5,0-0.9,0.3-1.2,0.5l-4.4,8.2l-4.2-14.7
			c-0.1-0.4-0.6-0.6-1.2-0.6c-0.5-0.1-1,0.1-1.4,0.5L7.8,30.7l0.9,1.7c0.5,0,0.9-0.1,1.3-0.5l4.4-8.1l4.2,14.6
			c0.1,0.4,0.6,0.6,1.2,0.6h0.1c0.5,0,0.9-0.1,1.3-0.5l5.1-9.5l2.6,3c0.3,0.3,0.8,0.5,1.2,0.4h15.7c0.8,0,1.3-0.4,1.3-0.9
			C47,31,46.5,30.7,45.7,30.7z"/>
	</g>
</g>
</svg>
