<?xml version="1.0" encoding="utf-8"?>
<!-- Generator: Adobe Illustrator 16.0.3, SVG Export Plug-In . SVG Version: 6.00 Build 0)  -->
<!DOCTYPE svg PUBLIC "-//W3C//DTD SVG 1.1//EN" "http://www.w3.org/Graphics/SVG/1.1/DTD/svg11.dtd">
<svg version="1.1" id="Capa_1" xmlns="http://www.w3.org/2000/svg" xmlns:xlink="http://www.w3.org/1999/xlink" x="0px" y="0px"
	 width="64px" height="64px" viewBox="0 0 64 64" enable-background="new 0 0 64 64" xml:space="preserve">
<g id="Capa_2">
	<g id="Capa_1-2">
		<path fill="#4F4F4F" d="M45.1,62.9H19.9c-0.7,0-1.2-0.5-1.2-1.2l0,0v-5.3c0-0.7,0.5-1.2,1.2-1.2l0,0h25.2c0.7,0,1.2,0.5,1.2,1.2
			v5.3C46.3,62.4,45.8,62.9,45.1,62.9z M21.1,60.4h22.8v-2.8H21.1V60.4z"/>
		<path fill="#4F4F4F" d="M17,21.8c-0.2,0-0.4,0-0.5-0.1c-1.1-0.5-2.2-0.9-3.3-1.1c-2.8-0.8-5.9-1.7-7.3-4.6C4.3,12.9,5,9,7.2,7
			c2.2-2,5.7-2.1,9.1-0.4c0.6,0.3,0.8,1,0.5,1.6c-0.3,0.6-1,0.8-1.6,0.5l0,0c-2.4-1.2-4.9-1.2-6.4,0c-1.5,1.2-1.9,4-0.9,6
			s3.3,2.6,5.8,3.4c1.3,0.3,2.5,0.8,3.7,1.3c0.6,0.3,0.9,1,0.6,1.6C17.9,21.5,17.4,21.8,17,21.8L17,21.8z"/>
		<path fill="#4F4F4F" d="M17,30.2c-0.2,0-0.4,0-0.5,0c-1.8-0.2-3.2-1.4-3.8-3.1c-0.2-0.6,0.1-1.3,0.8-1.6c0.6-0.2,1.3,0.1,1.6,0.8
			c0.2,0.8,0.9,1.4,1.8,1.5c0.8,0.1,1.5-0.3,2-0.9c0.4-0.6,1.1-0.7,1.7-0.4c0.4,0.2,0.6,0.6,0.6,1l0,0c0,0.2-0.1,0.5-0.2,0.7
			C19.9,29.3,18.5,30.1,17,30.2z"/>
		<path fill="#4F4F4F" d="M49,30.2c-1.5,0-2.9-0.8-3.8-2.1c-0.3-0.5-0.5-1-0.7-1.6c-0.2-0.7,0.3-1.3,0.9-1.5
			c0.6-0.2,1.3,0.3,1.5,0.9l0,0c0.1,0.3,0.2,0.5,0.3,0.7c0.4,0.7,1.2,1,2,1c0.8-0.1,1.5-0.7,1.8-1.5c0.2-0.6,0.9-1,1.6-0.8
			c0.7,0.2,1,0.9,0.8,1.6l0,0c-0.6,1.7-2,2.9-3.8,3.1C49.3,30.1,49.2,30.1,49,30.2z"/>
		<path fill="#4F4F4F" d="M47.8,22.6c-0.7,0-1.2-0.5-1.2-1.2c0-0.4,0.2-0.7,0.5-1c1.5-1.1,3.4-1.7,5.2-2.2c2.5-0.7,4.8-1.4,5.8-3.4
			s0.6-4.7-0.9-6c-1.6-1.4-4.7-1.2-7.3,0.5c-0.6,0.4-1.3,0.2-1.7-0.4c-0.4-0.6-0.2-1.3,0.4-1.7c3.6-2.3,7.8-2.4,10.2-0.2
			c2.3,2,2.9,6,1.5,8.9c-1.5,2.9-4.6,3.9-7.3,4.6c-1.7,0.5-3.3,0.9-4.4,1.8C48.3,22.5,48,22.6,47.8,22.6z"/>
		<path fill="#4F4F4F" d="M42.2,53.2c-0.3,0-0.6-0.1-0.9-0.4l-5-5c-1.2-1.2-1.9-2.8-1.9-4.6v-7c0-0.5,0.4-1,0.9-1.2
			c7.4-2.3,12.8-13,12.8-25.5c0-1.3-0.1-2.6-0.2-3.9H17.1C17,7,16.9,8.4,16.9,9.7c0,12.5,5.4,23.2,12.8,25.5
			c0.5,0.2,0.9,0.6,0.9,1.2v7c0,1.7-0.7,3.3-1.9,4.6l-5,5c-0.5,0.5-1.3,0.5-1.7,0c-0.5-0.5-0.5-1.3,0-1.7l0,0l5-5
			c0.8-0.7,1.2-1.8,1.2-2.8v-6.2c-7.9-3.1-13.7-14.4-13.7-27.5c0-1.8,0.1-3.5,0.3-5.3c0.1-0.6,0.6-1.1,1.2-1.1h33
			c0.6,0,1.1,0.5,1.2,1.1c0.2,1.8,0.3,3.5,0.3,5.3c0,13.1-5.7,24.4-13.7,27.5v6.2c0,1.1,0.4,2.1,1.2,2.8l5,5
			c0.5,0.5,0.5,1.2,0.1,1.7C42.9,53.1,42.5,53.2,42.2,53.2z"/>
		<path fill="#4F4F4F" d="M43.3,10.6H15.7c-0.7,0-1.2-0.6-1.1-1.3c0-0.6,0.5-1.1,1.1-1.1h27.7c0.7,0,1.2,0.6,1.1,1.3
			C44.4,10.1,44,10.6,43.3,10.6z"/>
	</g>
</g>
</svg>
