<?xml version="1.0" encoding="utf-8"?>
<!-- Generator: Adobe Illustrator 16.0.3, SVG Export Plug-In . SVG Version: 6.00 Build 0)  -->
<!DOCTYPE svg PUBLIC "-//W3C//DTD SVG 1.1//EN" "http://www.w3.org/Graphics/SVG/1.1/DTD/svg11.dtd">
<svg version="1.1" id="Capa_1" xmlns="http://www.w3.org/2000/svg" xmlns:xlink="http://www.w3.org/1999/xlink" x="0px" y="0px"
	 width="64px" height="64px" viewBox="0 0 64 64" enable-background="new 0 0 64 64" xml:space="preserve">
<g id="Capa_2">
	<g id="Capa_1-2">
		<path fill="#00A4D5" d="M26.657,53.295c-0.088-0.002-0.175-0.019-0.258-0.05h-0.567l-0.649-0.027c-0.154,0-0.304,0-0.454,0h-0.037
			h-0.177h-0.164c-0.107-0.009-0.215-0.009-0.322,0h-0.041c-0.59,0-1.162-0.04-1.715-0.081l-0.536-0.032l-0.563-0.031l-0.581-0.051
			l-0.79-0.113l-0.672-0.059l-0.667-0.063l-0.803-0.082l-0.581-0.055l-1.715-0.194h-0.141c-0.508-0.058-1.017-0.121-1.525-0.191
			c-0.73-0.095-1.457-0.194-2.183-0.299c-1.121-0.168-2.242-0.336-3.358-0.513l-0.231-0.036c-0.77-0.099-1.529-0.266-2.269-0.5
			c-0.575-0.165-1.103-0.466-1.539-0.875C3.785,49.7,3.58,49.25,3.546,48.771c-0.033-0.363-0.044-0.729-0.032-1.093
			c0-0.486,0.05-0.985,0.118-1.489C3.705,45.588,3.828,44.995,4,44.414l0.095-0.321c0.036-0.137,0.077-0.272,0.118-0.404
			c0.115-0.346,0.248-0.685,0.399-1.017l0.063-0.154c0.088-0.231,0.202-0.452,0.34-0.658c0.067-0.102,0.125-0.209,0.172-0.322
			c0.068-0.157,0.148-0.309,0.24-0.453c0.073-0.104,0.141-0.214,0.209-0.322c0.068-0.109,0.141-0.236,0.218-0.35
			c0.157-0.242,0.321-0.478,0.49-0.708c0.145-0.199,0.299-0.395,0.454-0.585l0.141-0.178c0.098-0.129,0.203-0.253,0.313-0.372
			c0.055-0.059,0.113-0.117,0.168-0.182c0.2-0.231,0.421-0.442,0.663-0.631c0.1-0.072,0.19-0.149,0.281-0.227l0.195-0.159
			c0.396-0.305,0.812-0.583,1.243-0.835l0.055-0.031c0.565-0.34,1.152-0.643,1.756-0.907c0.377-0.173,0.758-0.336,1.139-0.5
			l0.908-0.367l0.613-0.245c0.213-0.086,0.454-0.163,0.649-0.24l0.454-0.168l0.872-0.341l0.976-0.381l0.521-0.204
			c0.182-0.072,0.368-0.149,0.549-0.231l0.785-0.358l0.345-0.159c0.307-0.203,0.721-0.119,0.924,0.188
			c0.057,0.085,0.093,0.183,0.106,0.284l0.113,0.531c0.063,0.3,0.127,0.595,0.195,0.907c0.236,1.026,0.521,2.242,0.88,3.458
			c0.163,0.563,0.331,1.107,0.499,1.625c0.167,0.518,0.317,0.907,0.49,1.361c0.205,0.526,0.454,1.071,0.713,1.67
			c0.258,0.599,0.576,1.212,0.871,1.747s0.554,0.971,0.862,1.452c0.454,0.703,0.803,1.229,1.157,1.711
			c0.454,0.604,0.821,1.094,1.189,1.533l0.068,0.082c0.134,0.181,0.286,0.346,0.454,0.495c0.127-0.114,0.243-0.24,0.345-0.377
			c0.045-0.059,0.091-0.113,0.141-0.168l0.141-0.168c0.134-0.145,0.259-0.296,0.377-0.453c0.086-0.118,0.177-0.236,0.268-0.35
			s0.172-0.223,0.254-0.341c0.082-0.118,0.213-0.299,0.327-0.453c0.113-0.154,0.213-0.291,0.317-0.454s0.241-0.363,0.358-0.549
			c0.118-0.187,0.223-0.346,0.34-0.518c0.118-0.173,0.195-0.309,0.291-0.454l0.195-0.317c0.059-0.084,0.109-0.174,0.149-0.268
			c0.058-0.163,0.14-0.316,0.245-0.454c0.035-0.047,0.067-0.098,0.095-0.149c0.077-0.197,0.167-0.389,0.272-0.572
			c0.065-0.114,0.125-0.232,0.177-0.354c0.058-0.144,0.126-0.283,0.205-0.418c0.041-0.081,0.086-0.158,0.123-0.24
			c0.036-0.082,0.136-0.3,0.2-0.454l0.095-0.235l0.095-0.209c0.059-0.119,0.108-0.242,0.149-0.367
			c0.041-0.127,0.087-0.25,0.137-0.372l0.068-0.168c0.04-0.113,0.086-0.228,0.131-0.336c0.046-0.109,0.096-0.231,0.137-0.345
			l0.027-0.073c0.035-0.099,0.063-0.201,0.086-0.304c0.018-0.129,0.063-0.253,0.132-0.363l0,0c0.048-0.229,0.113-0.455,0.195-0.676
			c0.235-0.672,0.417-1.361,0.594-2.061c0.286-1.103,0.518-2.083,0.704-3.004c0.026-0.136,0.059-0.276,0.09-0.413l0.041-0.172
			c0.036-0.218,0.18-0.404,0.382-0.495c0.203-0.084,0.436-0.064,0.621,0.055c0.074,0.042,0.151,0.079,0.231,0.109l0.391,0.163
			l0.504,0.213l0.286,0.127c0.117,0.058,0.24,0.112,0.367,0.163l0.127,0.046c0.141,0.055,0.286,0.108,0.422,0.177
			c0.064,0.03,0.132,0.057,0.2,0.077c0.1,0.036,0.199,0.073,0.295,0.118c0.095,0.045,0.199,0.082,0.304,0.118l0.199,0.067
			l1.035,0.391l0.649,0.25l0.362,0.145l0.277,0.118l0.199,0.072l0.254,0.101l0.123,0.045c0.122,0.05,0.249,0.1,0.367,0.159
			c0.071,0.033,0.144,0.062,0.218,0.086l0.141,0.05l0.104,0.041l0.354,0.159c0.285,0.122,0.58,0.254,0.866,0.403l0.322,0.163
			c0.333,0.16,0.654,0.342,0.962,0.545c0.273,0.107,0.425,0.4,0.354,0.686c-0.054,0.252-0.252,0.448-0.504,0.499l-0.2,0.059
			l-0.204,0.06c-1.124,0.313-2.195,0.796-3.176,1.429c-0.394,0.243-0.769,0.515-1.121,0.813l-0.223,0.182
			c-0.187,0.154-0.363,0.3-0.518,0.454c-0.46,0.45-0.885,0.936-1.271,1.452c-0.483,0.671-0.895,1.393-1.226,2.15
			c-0.304,0.693-0.53,1.418-0.676,2.16c-0.103,0.479-0.161,0.967-0.177,1.457v0.014L37.14,48l-0.095,0.326
			c-0.032,0.09-0.032,0.188,0,0.277c0.045,0.114,0.054,0.238,0.027,0.358c0.016,0.114,0.023,0.229,0.022,0.345
			c0,0.063,0,0.127,0,0.186c0.05,0.539,0.143,1.073,0.276,1.598c0.063,0.236,0.132,0.454,0.205,0.699l0.059,0.186
			c0.067,0.193,0.04,0.406-0.072,0.577c-0.115,0.166-0.302,0.268-0.504,0.276l-0.722,0.082l-0.944,0.077l-1.465,0.117h-0.114
			c-0.285,0-0.567,0.041-0.853,0.051h-0.327c-0.26,0.016-0.521,0.016-0.78,0c-0.1-0.007-0.2-0.007-0.3,0
			c-0.074,0.004-0.148,0.004-0.222,0h-0.291c-0.104,0-0.208,0-0.317,0c-0.121,0.037-0.251,0.037-0.372,0h-0.368
			c-0.207-0.015-0.414-0.002-0.617,0.036c-0.1,0.024-0.205,0.024-0.304,0h-2.219C26.787,53.234,26.725,53.27,26.657,53.295z
			 M29.094,52.17L29.094,52.17z M26.499,52.079l0.313,0.05c0.067,0.008,0.136,0.008,0.204,0h1.856c0.074,0.008,0.148,0.008,0.222,0
			l0.504-0.077v0.055c0.131,0,0.258,0,0.381,0h0.295h0.263c0.035-0.005,0.069-0.005,0.104,0h0.077l0,0h0.286h0.263h0.204
			c0.151-0.014,0.303-0.014,0.454,0c0.21,0.011,0.421,0.011,0.631,0h0.358c0.272,0,0.545-0.027,0.817-0.05h0.113l1.447-0.113
			l0.939-0.082h0.127c-0.036-0.127-0.072-0.254-0.104-0.381c-0.151-0.582-0.255-1.176-0.308-1.774c0-0.082,0-0.168,0-0.255
			c0.001-0.104-0.01-0.21-0.032-0.313l-0.082-0.254h-0.077l0.032-0.164l-0.132-0.412h0.204l0.041-0.218c0-0.032,0-0.063,0-0.096
			v-0.05c0.013-0.554,0.078-1.105,0.195-1.647c0.162-0.823,0.415-1.627,0.753-2.396c0.368-0.832,0.825-1.623,1.361-2.359
			c0.412-0.561,0.867-1.089,1.361-1.579c0.19-0.195,0.399-0.363,0.6-0.531l0.208-0.172c0.394-0.332,0.811-0.636,1.248-0.908
			c0.869-0.563,1.804-1.021,2.782-1.361l-0.254-0.132c-0.255-0.131-0.518-0.249-0.799-0.372l-0.368-0.163l-0.145-0.055
			c-0.122-0.037-0.24-0.084-0.354-0.141c-0.088-0.043-0.179-0.081-0.272-0.113l-0.136-0.055l-0.218-0.086l-0.231-0.086l-0.291-0.118
			l-0.335-0.141l-0.586-0.317l-1.03-0.391l-0.172-0.059c-0.145-0.048-0.285-0.104-0.423-0.168l-0.194-0.072
			c-0.104-0.041-0.209-0.078-0.309-0.128c-0.101-0.05-0.214-0.091-0.322-0.131l-0.141-0.051c-0.15-0.059-0.295-0.127-0.454-0.194
			l-0.254-0.113c-0.159-0.073-0.322-0.142-0.485-0.205l-0.209-0.091l0,0c-0.195,0.939-0.427,1.938-0.718,3.05
			c-0.181,0.718-0.372,1.447-0.621,2.165c-0.07,0.173-0.123,0.353-0.159,0.535c-0.021,0.119-0.064,0.232-0.127,0.336l0,0
			c-0.029,0.155-0.073,0.307-0.132,0.454l-0.022,0.063c-0.045,0.141-0.104,0.276-0.159,0.412c-0.054,0.137-0.081,0.195-0.117,0.295
			l-0.082,0.204c-0.032,0.087-0.068,0.173-0.096,0.264c-0.059,0.178-0.129,0.353-0.208,0.521l-0.082,0.182l-0.096,0.228
			c-0.072,0.168-0.141,0.331-0.217,0.494c-0.047,0.103-0.098,0.203-0.155,0.3c-0.055,0.101-0.104,0.203-0.149,0.309
			c-0.072,0.173-0.154,0.322-0.231,0.454c-0.077,0.132-0.143,0.271-0.2,0.412c-0.06,0.153-0.141,0.297-0.24,0.427
			c-0.04,0.047-0.074,0.099-0.1,0.154c-0.069,0.173-0.156,0.339-0.258,0.495l-0.182,0.295c-0.109,0.172-0.213,0.345-0.327,0.513
			l-0.322,0.494c-0.123,0.195-0.25,0.386-0.377,0.576c-0.127,0.191-0.227,0.322-0.345,0.477l-0.304,0.418
			c-0.091,0.136-0.195,0.263-0.295,0.395s-0.159,0.2-0.231,0.305c-0.142,0.191-0.293,0.377-0.454,0.553l-0.136,0.154l-0.123,0.15
			c-0.182,0.242-0.397,0.458-0.64,0.64c-0.336,0.277-0.822,0.277-1.158,0c-0.287-0.214-0.542-0.467-0.757-0.753l-0.068-0.077
			c-0.381-0.454-0.776-0.967-1.229-1.589c-0.368-0.504-0.74-1.048-1.198-1.774c-0.322-0.503-0.626-1.012-0.908-1.52
			c-0.281-0.509-0.604-1.148-0.907-1.815c-0.304-0.667-0.481-1.099-0.708-1.647c-0.177-0.454-0.345-0.935-0.508-1.425
			c-0.163-0.49-0.345-1.085-0.513-1.656c-0.363-1.253-0.658-2.487-0.908-3.531c-0.068-0.299-0.131-0.599-0.2-0.907v-0.041
			l-0.689,0.318c-0.2,0.086-0.399,0.172-0.604,0.249l-0.531,0.209l-0.962,0.377l-0.88,0.345l-0.454,0.172
			c-0.2,0.073-0.404,0.146-0.604,0.228l-0.626,0.249l-0.917,0.377l-1.116,0.485c-0.552,0.247-1.089,0.527-1.606,0.84l-0.055,0.031
			c-0.391,0.226-0.767,0.476-1.125,0.749l-0.182,0.163c-0.114,0.096-0.223,0.187-0.34,0.272c-0.182,0.144-0.349,0.305-0.5,0.481
			c-0.059,0.068-0.122,0.136-0.186,0.199c-0.063,0.063-0.163,0.195-0.245,0.295l-0.146,0.182c-0.145,0.182-0.286,0.358-0.422,0.54
			s-0.313,0.454-0.454,0.667l-0.199,0.318c-0.073,0.122-0.15,0.24-0.227,0.358c-0.059,0.098-0.11,0.199-0.154,0.304
			c-0.077,0.182-0.171,0.354-0.282,0.518c-0.09,0.141-0.162,0.294-0.213,0.453L5.669,43.14c-0.136,0.317-0.263,0.607-0.358,0.907
			l-0.109,0.377l-0.1,0.345c-0.154,0.521-0.265,1.054-0.331,1.593c-0.059,0.454-0.086,0.907-0.109,1.397
			c-0.01,0.316,0.001,0.634,0.032,0.948c0.014,0.213,0.104,0.412,0.254,0.563c0.315,0.283,0.69,0.489,1.098,0.604
			c0.673,0.21,1.362,0.361,2.061,0.453l0.231,0.036c1.116,0.179,2.232,0.349,3.349,0.509c0.717,0.108,1.439,0.204,2.16,0.3
			c0.504,0.067,1.007,0.127,1.516,0.186h0.141l1.702,0.199l0.558,0.055l0.826,0.082l0.649,0.063l0.658,0.055l0.817,0.067l0.558,0.05
			l0.544,0.032l0.549,0.032c0.531,0.04,1.076,0.077,1.62,0.081c0.151-0.011,0.303-0.011,0.454,0h0.154h0.118
			c0.177-0.009,0.354-0.009,0.531,0h0.608c0.209,0,0.413,0,0.618,0l0,0L26.499,52.079z"/>
		<path fill="#00A4D5" d="M40.961,34.395c-0.597,0.012-1.186-0.146-1.697-0.453c-0.645-0.379-1.115-0.995-1.312-1.716
			c-0.228-0.799-0.106-1.658,0.331-2.364c0.263-0.433,0.635-0.789,1.08-1.03c0.205-0.115,0.421-0.208,0.645-0.277
			c0.086-0.454,0.154-0.908,0.204-1.33c0.058-0.441,0.087-0.885,0.087-1.33v-0.077v-0.059c0.035-0.149,0.035-0.305,0-0.454v-0.159
			c-0.003-0.042-0.003-0.085,0-0.127v-2.288c0-2.372,0-4.748,0-7.129c-0.014-0.645-0.123-1.285-0.327-1.897
			c-0.15-0.502-0.352-0.989-0.599-1.452c-0.388-0.765-0.883-1.469-1.471-2.092c-0.309-0.336-0.648-0.645-1.008-0.971l-0.113-0.1
			c-0.362-0.313-0.749-0.598-1.157-0.848c-1.505-0.956-3.182-1.606-4.937-1.915c-0.636-0.125-1.281-0.2-1.929-0.223h-0.299h-0.114
			c-0.265-0.034-0.533-0.034-0.798,0l-0.34,0.027C26.752,6.16,26.34,6.191,25.913,6.25c-0.652,0.09-1.297,0.22-1.933,0.39
			c-0.722,0.197-1.426,0.453-2.105,0.767c-0.34,0.159-0.694,0.345-1.117,0.585c-0.455,0.264-0.894,0.556-1.311,0.876
			c-0.398,0.314-0.777,0.652-1.135,1.012c-0.427,0.416-0.813,0.872-1.153,1.362c-0.392,0.565-0.718,1.175-0.971,1.815
			c-0.227,0.559-0.394,1.14-0.5,1.733c-0.051,0.315-0.084,0.634-0.1,0.953v0.281c0,2.926,0,5.854,0,8.786l0.082,0.036l-0.054,0.409
			c-0.14,0.744-0.79,1.284-1.548,1.284h-0.826c-0.841,0.006-1.652-0.309-2.269-0.88c-0.439-0.399-0.714-0.948-0.771-1.539
			c-0.011-0.21-0.011-0.42,0-0.631c0-2.142,0-4.284,0-6.425c0.001-0.5,0.15-0.99,0.427-1.407c0.281-0.417,0.676-0.743,1.139-0.939
			c0.306-0.157,0.633-0.272,0.971-0.34h0.073h0.055c0.041-0.25,0.095-0.522,0.167-0.826c0.148-0.594,0.339-1.176,0.572-1.742
			c0.131-0.318,0.29-0.622,0.454-0.908l0.204-0.399c0.183-0.35,0.396-0.683,0.64-0.994c0.282-0.39,0.585-0.764,0.908-1.121
			l0.177-0.195c0.225-0.261,0.471-0.503,0.735-0.726l0.322-0.272c0.172-0.146,0.34-0.286,0.518-0.422
			c0.383-0.304,0.781-0.589,1.193-0.853c0.363-0.231,0.744-0.454,1.112-0.631l0.145-0.077c0.443-0.229,0.897-0.436,1.361-0.617
			c0.698-0.283,1.413-0.519,2.142-0.708c0.631-0.159,1.252-0.268,1.997-0.386c0.381-0.059,0.763-0.091,1.13-0.118l0.313-0.027h0.113
			c0.079,0.008,0.158,0.008,0.236,0h0.127h0.367c0.302-0.016,0.605-0.016,0.908,0c0.957,0.061,1.908,0.181,2.85,0.358
			c0.781,0.167,1.553,0.379,2.31,0.635c0.517,0.178,1.022,0.386,1.516,0.622l0.136,0.063c0.322,0.15,0.654,0.309,0.977,0.499
			c0.322,0.191,0.721,0.427,1.098,0.676s0.622,0.454,0.907,0.663c0.087,0.073,0.178,0.141,0.264,0.204
			c0.154,0.118,0.309,0.236,0.453,0.377c0.469,0.442,0.908,0.913,1.316,1.411c0.331,0.391,0.635,0.805,0.907,1.239
			c0.813,1.266,1.364,2.68,1.625,4.162v0.149c0.387,0.059,0.763,0.174,1.116,0.34c0.772,0.335,1.333,1.026,1.502,1.852l0.391,0.581
			l-0.377,0.104v6.67c-0.012,0.523-0.207,1.024-0.554,1.416c-0.506,0.601-1.218,0.991-1.996,1.094l0,0
			c-0.005,0.357-0.032,0.713-0.082,1.066l-0.032,0.25c-0.045,0.381-0.108,0.771-0.182,1.167c1.339,0.91,1.687,2.733,0.776,4.072
			c-0.152,0.223-0.334,0.424-0.54,0.597c-0.498,0.423-1.114,0.681-1.766,0.74C41.204,34.38,41.083,34.391,40.961,34.395z
			 M41.415,25.913c-0.002,0.475-0.034,0.95-0.096,1.42c-0.063,0.545-0.149,1.098-0.263,1.647c-0.059,0.295-0.287,0.527-0.581,0.59
			c-0.197,0.048-0.389,0.122-0.567,0.218c-0.274,0.145-0.505,0.361-0.667,0.626c-0.283,0.442-0.36,0.985-0.213,1.488
			c0.12,0.443,0.412,0.821,0.812,1.048c0.406,0.252,0.887,0.359,1.362,0.299c0.418-0.03,0.817-0.188,1.143-0.454
			c0.466-0.354,0.712-0.925,0.649-1.507c-0.021-0.628-0.391-1.194-0.958-1.466c-0.279-0.13-0.432-0.438-0.367-0.74
			c0.1-0.454,0.177-0.944,0.231-1.397l0.032-0.263c0.046-0.3,0.072-0.604,0.077-0.908v-0.108c-0.011-0.136,0.003-0.273,0.041-0.404
			c0.019-0.341,0.298-0.61,0.64-0.617c0.604-0.011,1.176-0.276,1.574-0.73c0.18-0.189,0.284-0.438,0.295-0.699v-2.269
			c0-1.558,0-3.113,0-4.665c-0.014-0.078-0.014-0.158,0-0.236c-0.082-0.484-0.408-0.892-0.862-1.08
			c-0.326-0.157-0.682-0.248-1.044-0.268c-0.337,0.005-0.625-0.246-0.667-0.581c0-0.095-0.031-0.195-0.05-0.291l-0.031-0.195
			c-0.244-1.328-0.749-2.594-1.484-3.726c-0.24-0.388-0.51-0.757-0.808-1.103c-0.378-0.462-0.784-0.9-1.216-1.312
			c-0.123-0.109-0.254-0.208-0.382-0.309l-0.304-0.236c-0.24-0.195-0.504-0.39-0.803-0.59c-0.3-0.2-0.722-0.454-1.04-0.645
			c-0.317-0.19-0.576-0.304-0.907-0.454l-0.141-0.063c-0.452-0.218-0.917-0.408-1.394-0.567c-0.713-0.245-1.44-0.447-2.178-0.604
			c-0.9-0.166-1.809-0.278-2.723-0.335c-0.26-0.016-0.521-0.016-0.78,0h-0.34c-0.15,0.024-0.302,0.033-0.454,0.027h-0.05h-0.268
			c-0.363,0.027-0.708,0.055-1.048,0.109c-0.708,0.109-1.303,0.213-1.888,0.363c-0.682,0.172-1.351,0.392-2.001,0.658
			c-0.399,0.173-0.788,0.367-1.166,0.581l-0.15,0.082c-0.363,0.19-0.708,0.376-1.035,0.585c-0.383,0.243-0.752,0.506-1.107,0.79
			c-0.163,0.127-0.322,0.258-0.481,0.39l-0.34,0.286c-0.213,0.192-0.412,0.4-0.594,0.622l-0.187,0.208
			c-0.293,0.327-0.569,0.669-0.826,1.026c-0.202,0.255-0.379,0.529-0.531,0.817l-0.218,0.422c-0.146,0.281-0.281,0.549-0.395,0.821
			c-0.212,0.513-0.386,1.041-0.521,1.58c-0.085,0.327-0.149,0.659-0.191,0.994c-0.031,0.417-0.395,0.73-0.812,0.699
			c-0.051-0.005-0.103-0.005-0.154,0h-0.091c-0.233,0.047-0.459,0.125-0.672,0.231c-0.266,0.108-0.495,0.291-0.658,0.527
			c-0.162,0.24-0.247,0.523-0.245,0.812c0,2.138,0,4.279,0,6.417c0,0.168,0,0.345,0,0.518c0.025,0.315,0.171,0.608,0.408,0.817
			c0.405,0.378,0.939,0.587,1.493,0.585h0.771c0.161-0.011,0.312-0.086,0.417-0.208c-0.009-0.054-0.009-0.109,0-0.164v-9.148
			c-0.012-0.11-0.001-0.221,0.032-0.327c0.02-0.324,0.057-0.646,0.109-0.966c0.115-0.683,0.303-1.351,0.563-1.992
			c0.285-0.713,0.65-1.39,1.089-2.02c0.382-0.552,0.815-1.067,1.293-1.539c0.39-0.392,0.804-0.76,1.239-1.103
			c0.457-0.352,0.938-0.671,1.438-0.958c0.454-0.259,0.831-0.454,1.203-0.626c0.732-0.34,1.491-0.62,2.269-0.835
			c0.681-0.182,1.372-0.321,2.069-0.417c0.454-0.063,0.908-0.096,1.361-0.127l0.3-0.022c0.347-0.043,0.697-0.043,1.043,0h0.091
			c0.074,0.004,0.148,0.004,0.223,0c0.707,0.027,1.411,0.107,2.105,0.24c1.899,0.335,3.715,1.042,5.341,2.079
			c0.462,0.285,0.901,0.607,1.312,0.962l0.109,0.1c0.363,0.327,0.739,0.667,1.084,1.043c0.311,0.332,0.599,0.684,0.862,1.053
			c0.289,0.41,0.55,0.839,0.781,1.285c0.275,0.529,0.501,1.082,0.676,1.651c0.234,0.719,0.36,1.468,0.377,2.224
			c0,2.375,0,4.75,0,7.125v2.359c0.072,0.277,0.089,0.565,0.05,0.849L41.415,25.913L41.415,25.913z M15.548,25.16L15.548,25.16z"/>
		<path fill="#00A4D5" d="M27.964,40.657h1.362c0.155,0.022,0.287,0.124,0.349,0.268c0.245,1.017,0.49,2.028,0.74,3.045
			c0.022,0.066,0.022,0.138,0,0.204c-0.518,1.039-1.089,2.052-1.693,3.05c-0.213,0.35-0.454,0.689-0.649,1.034
			c-0.104,0.164-0.131,0.154-0.24,0c-0.291-0.453-0.558-0.907-0.826-1.334c-0.195-0.327-0.372-0.662-0.563-0.989
			c-0.272-0.454-0.508-0.957-0.776-1.425c-0.069-0.122-0.126-0.249-0.172-0.381c-0.05-0.141,0.032-0.272,0.059-0.404
			c0.212-0.88,0.428-1.761,0.649-2.641c0.004-0.027,0.004-0.055,0-0.082c-0.009-0.183,0.133-0.338,0.315-0.347
			c0.018-0.001,0.035,0,0.052,0.002h1.361H27.964L27.964,40.657z"/>
		<path fill="#00A4D5" d="M30.061,36.255c0.268,0.087,0.363,0.231,0.308,0.49c-0.131,0.59-0.245,1.185-0.376,1.774
			c-0.086,0.391-0.141,0.79-0.254,1.176c-0.032,0.133-0.16,0.22-0.295,0.199h-0.104h-2.772h-0.104
			c-0.142,0.02-0.274-0.077-0.3-0.218c-0.109-0.504-0.208-1.008-0.313-1.511c-0.104-0.504-0.19-0.936-0.295-1.397
			c-0.026-0.138-0.007-0.279,0.055-0.404c0.041-0.091,0.149-0.086,0.236-0.108h0.123h3.971L30.061,36.255L30.061,36.255z"/>
		<path fill="#00A4D5" d="M15.036,23.581c-0.059-0.023-0.032-0.073-0.032-0.114v-9.194c0-0.05,0-0.104,0.027-0.149v9.402
			C15.031,23.526,15.036,23.563,15.036,23.581z"/>
		<path fill="#00A4D5" d="M45.141,22.387v-6.975c0-0.036-0.046-0.095,0.036-0.118c0,2.324,0,4.646,0,6.966
			C45.172,22.301,45.209,22.355,45.141,22.387z"/>
		<path fill="#00A4D5" d="M30.061,36.255h-0.123h-3.971h-0.123c0-0.063,0.054-0.045,0.091-0.045h4.048
			C30.006,36.21,30.061,36.191,30.061,36.255z"/>
		<path fill="#00A4D5" d="M26.462,39.895h0.104h2.772h0.104c0,0.063-0.05,0.046-0.086,0.046h-2.809
			C26.512,39.94,26.458,39.958,26.462,39.895z"/>
		<path fill="#00A4D5" d="M27.229,52.701h1.416c0,0.04-0.045,0.031-0.072,0.031h-1.271C27.261,52.732,27.261,52.741,27.229,52.701z"
			/>
		<path fill="#00A4D5" d="M29.181,52.688c0,0.022,0,0.041,0.045,0.036c0.357-0.055,0.719-0.073,1.08-0.055
			c-0.032,0.063-0.091,0.032-0.136,0.032L29.181,52.688z"/>
		<path fill="#00A4D5" d="M25.6,52.669c0.295,0,0.594,0,0.908,0c0.077,0,0.15,0.104,0.231,0c-0.331,0-0.658,0-0.989,0
			C25.691,52.701,25.632,52.732,25.6,52.669z"/>
		<path fill="#00A4D5" d="M49.61,37.812c-0.022-0.059-0.077-0.045-0.113-0.031c-0.21,0.048-0.425,0.064-0.64,0.05
			c0.031-0.063,0.086-0.027,0.131-0.027L49.61,37.812z"/>
		<path fill="#00A4D5" d="M13.248,24.375h0.771c0,0.05-0.055,0.032-0.086,0.032h-0.594C13.307,24.407,13.261,24.425,13.248,24.375z"
			/>
		<path fill="#00A4D5" d="M40.875,23.599c0.052,0.227,0.052,0.462,0,0.689V23.599z"/>
		<path fill="#00A4D5" d="M30.479,52.66c0.059,0.072,0.109,0,0.172,0c0.182,0,0.363,0,0.544,0c-0.027,0.059-0.086,0.027-0.131,0.027
			L30.479,52.66z"/>
		<path fill="#00A4D5" d="M24.711,52.642c0.231,0,0.454,0,0.689,0h-0.576C24.788,52.669,24.733,52.701,24.711,52.642z"/>
		<path fill="#00A4D5" d="M50.427,37.83h-0.604c0.164,0,0.327,0,0.486,0C50.35,37.803,50.404,37.771,50.427,37.83z"/>
		<path fill="#00A4D5" d="M24.003,52.61c0.189-0.012,0.378-0.012,0.567,0h-0.454C24.084,52.642,24.021,52.669,24.003,52.61z"/>
		<path fill="#00A4D5" d="M31.345,52.628c0.19,0,0.377-0.031,0.567,0c-0.1,0.077-0.209,0-0.313,0.027
			C31.514,52.653,31.429,52.644,31.345,52.628z"/>
		<path fill="#00A4D5" d="M42.59,24.897c-0.012-0.116-0.001-0.233,0.032-0.345C42.6,24.666,42.69,24.774,42.59,24.897z"/>
		<path fill="#00A4D5" d="M27.937,31.518c-6.331,0-11.462-5.132-11.462-11.462c0-6.331,5.132-11.463,11.462-11.463
			s11.462,5.132,11.462,11.463C39.396,26.384,34.266,31.513,27.937,31.518z M27.937,9.736c-5.704,0-10.328,4.624-10.328,10.328
			s4.624,10.329,10.328,10.329c5.705,0,10.329-4.625,10.329-10.329c0-0.003,0-0.006,0-0.009
			c-0.008-5.701-4.628-10.321-10.329-10.328V9.736z"/>
		<path fill="#00A4D5" d="M50.809,61.01h-0.672H50.01h-0.059h-0.259c-0.103,0.014-0.207,0.003-0.305-0.031
			c-0.503-0.026-1.004-0.092-1.497-0.195c-0.651-0.121-1.292-0.294-1.915-0.518c-1.092-0.397-2.126-0.938-3.077-1.606
			c-0.573-0.407-1.11-0.862-1.606-1.361c-0.395-0.398-0.759-0.826-1.089-1.28c-0.377-0.512-0.712-1.054-1.003-1.62
			c-0.235-0.465-0.436-0.947-0.599-1.442c-0.199-0.601-0.351-1.215-0.454-1.838c-0.055-0.331-0.095-0.689-0.127-1.094v-1.397
			c0.046-0.586,0.131-1.168,0.254-1.742c0.037-0.159,0.073-0.322,0.113-0.481l0.063-0.25c0.035-0.187,0.103-0.367,0.2-0.53
			c0,0,0-0.036,0-0.063c0.026-0.126,0.067-0.248,0.122-0.363c0.041-0.078,0.077-0.158,0.109-0.24
			c0.036-0.087,0.072-0.173,0.113-0.254c0.041-0.082,0.072-0.164,0.108-0.245c0.068-0.178,0.15-0.349,0.245-0.514
			c0.218-0.362,0.454-0.775,0.74-1.166c0.182-0.266,0.377-0.521,0.585-0.767c0.393-0.459,0.817-0.89,1.271-1.289
			c0.59-0.506,1.222-0.962,1.888-1.361c0.444-0.268,0.908-0.5,1.389-0.694c0.609-0.249,1.233-0.458,1.87-0.626
			c0.558-0.146,1.116-0.236,1.638-0.317c0.195-0.027,0.395-0.041,0.59-0.055h0.236h0.204c0.101,0.015,0.203,0.015,0.304,0
			c0.139-0.048,0.289-0.048,0.427,0c0.049-0.005,0.097-0.005,0.146,0h0.558c0.601,0.043,1.197,0.12,1.788,0.231
			c0.2,0.036,0.391,0.086,0.586,0.136s0.39,0.1,0.59,0.137c0.156,0.03,0.309,0.079,0.453,0.145c0.057,0.029,0.116,0.052,0.178,0.068
			c0.13,0.035,0.258,0.081,0.381,0.136c0.073,0.034,0.149,0.063,0.227,0.087c0.127,0.033,0.247,0.089,0.354,0.163
			c0.018,0.015,0.037,0.027,0.059,0.036c0.444,0.18,0.874,0.394,1.284,0.641l0.055,0.036c0.336,0.202,0.662,0.422,0.976,0.657
			l0.168,0.132c0.327,0.235,0.631,0.502,0.907,0.794c0.078,0.082,0.159,0.159,0.245,0.231c0.104,0.096,0.209,0.191,0.305,0.291
			c0.392,0.426,0.751,0.881,1.075,1.361c0.154,0.218,0.29,0.454,0.427,0.676l0.132,0.218c0.236,0.404,0.443,0.826,0.616,1.262
			c0.298,0.731,0.519,1.492,0.658,2.27c0.136,0.739,0.19,1.49,0.164,2.241c0.002,0.039,0.002,0.079,0,0.118l0,0
			c0,0.082,0,0.168,0,0.254c0.017,0.107,0.004,0.217-0.037,0.317c-0.034,0.514-0.115,1.022-0.24,1.521
			c-0.106,0.491-0.25,0.974-0.431,1.443c-0.36,0.949-0.846,1.847-1.443,2.668C58.443,59.177,54.739,61.083,50.809,61.01z
			 M50.55,59.875h0.259c3.63,0,7.052-1.756,8.917-4.578c0.547-0.747,0.991-1.563,1.32-2.428c0.158-0.415,0.286-0.842,0.381-1.275
			c0.122-0.481,0.195-0.975,0.219-1.471v-0.427v-0.063v-0.081c0.028-0.68-0.021-1.36-0.146-2.028
			c-0.123-0.695-0.32-1.375-0.586-2.029c-0.151-0.384-0.333-0.756-0.544-1.111l-0.132-0.223c-0.122-0.209-0.25-0.417-0.386-0.617
			c-0.295-0.427-0.621-0.832-0.976-1.212c-0.072-0.077-0.149-0.145-0.231-0.218c-0.116-0.102-0.227-0.209-0.331-0.321
			c-0.229-0.239-0.479-0.457-0.749-0.649l-0.177-0.141c-0.282-0.212-0.574-0.408-0.876-0.59l-0.06-0.032
			c-0.359-0.216-0.736-0.404-1.125-0.563c-0.073-0.033-0.145-0.071-0.213-0.113l-0.06-0.036c-0.125-0.036-0.248-0.08-0.367-0.132
			c-0.072-0.033-0.146-0.063-0.223-0.086c-0.115-0.032-0.228-0.073-0.336-0.123c-0.061-0.03-0.124-0.054-0.19-0.068
			c-0.231-0.045-0.454-0.1-0.667-0.154c-0.214-0.054-0.35-0.09-0.526-0.122c-0.542-0.101-1.089-0.173-1.639-0.218l-0.658-0.027
			l-0.453,0.118l-0.036-0.091h-0.35h-0.223c-0.168,0-0.331,0.022-0.494,0.045c-0.512,0.07-1.02,0.167-1.521,0.291
			c-0.588,0.156-1.166,0.351-1.729,0.581c-0.425,0.174-0.836,0.381-1.229,0.617c-0.608,0.373-1.186,0.797-1.725,1.266
			c-0.41,0.363-0.794,0.757-1.147,1.176c-0.186,0.213-0.358,0.438-0.518,0.671c-0.25,0.358-0.477,0.735-0.694,1.099
			c-0.064,0.117-0.122,0.238-0.173,0.363c-0.04,0.104-0.086,0.208-0.131,0.304c-0.046,0.096-0.063,0.136-0.091,0.204
			c-0.045,0.111-0.095,0.221-0.15,0.327c-0.003,0.028-0.003,0.057,0,0.086c-0.028,0.149-0.084,0.292-0.163,0.422
			c-0.023,0.059-0.041,0.12-0.055,0.182l-0.063,0.264l-0.108,0.453c-0.109,0.519-0.185,1.043-0.228,1.57v1.257
			c0.032,0.367,0.068,0.689,0.114,0.985c0.092,0.563,0.228,1.118,0.408,1.66c0.146,0.442,0.325,0.873,0.535,1.289
			c0.263,0.512,0.566,1.002,0.907,1.466c0.297,0.406,0.623,0.79,0.976,1.148c0.45,0.457,0.939,0.875,1.462,1.247
			c0.864,0.611,1.808,1.103,2.804,1.462c0.566,0.197,1.148,0.349,1.738,0.453c0.479,0.103,0.967,0.161,1.457,0.178h0.408v0.022
			h0.077h0.082L50.55,59.875z M55.669,56.89c-1.436-0.003-2.598-1.166-2.601-2.601c0.001-0.339,0.066-0.675,0.195-0.989
			l-1.815-1.516c-0.766,0.268-1.612,0.169-2.296-0.268l-2.093,1.507c0.492,1.349-0.204,2.841-1.554,3.332
			c-1.35,0.492-2.842-0.204-3.333-1.554s0.205-2.842,1.555-3.333c0.285-0.104,0.587-0.156,0.892-0.156
			c0.428-0.001,0.849,0.104,1.225,0.309l2.219-1.598c-0.063-0.223-0.095-0.453-0.095-0.686v-0.104l-2.174-0.861
			c-1.107,0.909-2.743,0.749-3.653-0.359c-0.909-1.107-0.749-2.743,0.358-3.653c1.108-0.909,2.744-0.749,3.653,0.359
			c0.383,0.465,0.591,1.049,0.59,1.651c0.001,0.127-0.01,0.253-0.031,0.377l1.974,0.767c0.103-0.104,0.214-0.202,0.331-0.29
			l-0.526-1.983c-1.419-0.219-2.392-1.547-2.173-2.967c0.22-1.419,1.548-2.392,2.967-2.172c1.42,0.219,2.393,1.547,2.173,2.967
			c-0.112,0.73-0.531,1.379-1.151,1.782l0.499,1.878c0.416,0.041,0.815,0.182,1.166,0.409l1.289-0.989
			c-0.123-0.305-0.187-0.63-0.187-0.958c0-1.436,1.165-2.6,2.601-2.6c1.437,0,2.601,1.164,2.601,2.6
			c0,1.437-1.164,2.601-2.601,2.601l0,0c-0.402,0-0.799-0.095-1.157-0.277l-1.452,1.116c0.063,0.225,0.096,0.457,0.096,0.69
			c-0.003,0.424-0.107,0.841-0.305,1.216l1.688,1.397c0.352-0.173,0.738-0.263,1.13-0.263c1.436,0,2.601,1.164,2.601,2.601
			c0,1.436-1.165,2.6-2.601,2.6L55.669,56.89z M54.593,53.259l-0.145,0.218c-0.451,0.676-0.27,1.588,0.405,2.04
			c0.675,0.45,1.588,0.269,2.039-0.406s0.27-1.588-0.405-2.039c-0.242-0.162-0.527-0.248-0.818-0.248
			c-0.307-0.001-0.605,0.096-0.854,0.277L54.593,53.259z M44.609,52.446c-0.812-0.003-1.473,0.653-1.476,1.465
			c-0.003,0.813,0.653,1.473,1.465,1.477c0.812,0.003,1.473-0.653,1.476-1.465c0.001-0.276-0.075-0.547-0.222-0.782l-0.141-0.227
			l-0.208-0.159c-0.258-0.198-0.574-0.304-0.899-0.299L44.609,52.446z M49.36,50.214l0.187,0.182
			c0.463,0.434,1.149,0.526,1.711,0.231l0.231-0.127l0.182-0.209c0.227-0.266,0.352-0.604,0.354-0.953
			c0-0.221-0.05-0.439-0.146-0.64l-0.117-0.235l-0.187-0.182c-0.308-0.296-0.728-0.443-1.152-0.404l-0.259,0.022l-0.24,0.118
			c-0.238,0.113-0.44,0.289-0.586,0.509l-0.145,0.213l-0.06,0.259c-0.03,0.11-0.045,0.225-0.045,0.34
			c0.001,0.223,0.054,0.441,0.154,0.64L49.36,50.214z M44.143,44.923c-0.81,0-1.466,0.656-1.466,1.466s0.656,1.466,1.466,1.466
			c0.42,0,0.819-0.181,1.098-0.495l0.177-0.204l0.096-0.245c0.063-0.167,0.095-0.343,0.095-0.521
			C45.607,45.579,44.952,44.923,44.143,44.923L44.143,44.923z M54.579,46.234l0.218,0.159c0.25,0.183,0.553,0.281,0.862,0.281
			c0.808-0.003,1.459-0.659,1.457-1.466c-0.003-0.808-0.659-1.46-1.466-1.457s-1.459,0.659-1.457,1.466
			c0.001,0.284,0.085,0.562,0.241,0.799L54.579,46.234z M48.875,41.242c-0.811-0.045-1.504,0.576-1.549,1.387
			c-0.046,0.811,0.575,1.505,1.386,1.55c0.055,0.003,0.108,0.003,0.163,0h0.3l0.24-0.096c0.553-0.225,0.913-0.765,0.908-1.361
			c0.018-0.812-0.626-1.484-1.438-1.502l0,0L48.875,41.242z"/>
	</g>
</g>
</svg>
