<?xml version="1.0" encoding="utf-8"?>
<!-- Generator: Adobe Illustrator 16.0.3, SVG Export Plug-In . SVG Version: 6.00 Build 0)  -->
<!DOCTYPE svg PUBLIC "-//W3C//DTD SVG 1.1//EN" "http://www.w3.org/Graphics/SVG/1.1/DTD/svg11.dtd">
<svg version="1.1" id="Capa_1" xmlns="http://www.w3.org/2000/svg" xmlns:xlink="http://www.w3.org/1999/xlink" x="0px" y="0px"
	 width="64px" height="64px" viewBox="0 0 64 64" enable-background="new 0 0 64 64" xml:space="preserve">
<g id="Capa_2">
	<g id="Capa_1-2">
		<path fill="#6B6B6B" d="M51.6,2.5H13.4c-0.7,0-1.4,0.6-1.4,1.4l0,0v57.3c0,0.8,0.6,1.4,1.4,1.4c0,0,0,0,0,0h38.2
			c0.8,0,1.4-0.6,1.4-1.4l0,0V3.8C53,3.1,52.4,2.5,51.6,2.5z M50.2,59.7H14.8V5.2h35.4V59.7z"/>
		<path fill="#6B6B6B" d="M18.9,24.3h27.3c0.8,0,1.4-0.6,1.4-1.4l0,0V9.3c0-0.8-0.6-1.4-1.4-1.4c0,0,0,0,0,0H18.9
			c-0.7,0-1.4,0.6-1.4,1.4c0,0,0,0,0,0v13.7C17.5,23.7,18.1,24.3,18.9,24.3L18.9,24.3z M20.3,10.6h24.5v10.9H20.3V10.6z"/>
		<path fill="#6B6B6B" d="M18.9,35.2h5.5c0.7,0,1.4-0.6,1.4-1.4c0,0,0,0,0,0v-5.5c0-0.7-0.6-1.4-1.4-1.4c0,0,0,0,0,0h-5.5
			c-0.7,0-1.4,0.6-1.4,1.4l0,0v5.4C17.5,34.6,18.1,35.2,18.9,35.2L18.9,35.2z M20.3,29.7H23v2.7h-2.7V29.7z"/>
		<path fill="#6B6B6B" d="M18.9,46.1h5.5c0.7,0,1.4-0.6,1.4-1.3c0,0,0,0,0,0v-5.5c0-0.7-0.6-1.4-1.4-1.4c0,0,0,0,0,0h-5.5
			c-0.7,0-1.4,0.6-1.4,1.4l0,0v5.5C17.5,45.5,18.1,46.1,18.9,46.1C18.9,46.1,18.9,46.1,18.9,46.1z M20.3,40.7H23v2.7h-2.7V40.7z"/>
		<path fill="#6B6B6B" d="M35.3,27h-5.4c-0.8,0-1.4,0.6-1.4,1.4c0,0,0,0,0,0v5.4c0,0.8,0.6,1.4,1.4,1.4c0,0,0,0,0,0h5.5
			c0.8,0,1.4-0.6,1.4-1.4l0,0v-5.4C36.6,27.6,36,27,35.3,27C35.3,27,35.3,27,35.3,27z M33.9,32.5h-2.7v-2.7h2.7V32.5z"/>
		<path fill="#6B6B6B" d="M35.3,37.9h-5.4c-0.8,0-1.4,0.6-1.4,1.4c0,0,0,0,0,0v5.5c0,0.8,0.6,1.4,1.3,1.4c0,0,0,0,0,0h5.5
			c0.8,0,1.4-0.6,1.4-1.4c0,0,0,0,0,0v-5.5C36.6,38.5,36,37.9,35.3,37.9C35.3,37.9,35.3,37.9,35.3,37.9z M33.9,43.4h-2.7v-2.7h2.7
			V43.4z"/>
		<path fill="#6B6B6B" d="M46.2,27h-5.5c-0.8,0-1.4,0.6-1.4,1.4l0,0v5.5c0,0.8,0.6,1.4,1.4,1.4l0,0h5.5c0.8,0,1.4-0.6,1.4-1.4l0,0
			v-5.5C47.5,27.6,46.9,27,46.2,27L46.2,27z M44.8,32.5h-2.7v-2.7h2.7V32.5z"/>
		<path fill="#6B6B6B" d="M46.2,37.9h-5.5c-0.8,0-1.4,0.6-1.4,1.4l0,0v5.5c0,0.8,0.6,1.4,1.4,1.4c0,0,0,0,0,0h5.5
			c0.7,0,1.4-0.6,1.4-1.4c0,0,0,0,0,0v-5.5C47.5,38.5,46.9,37.9,46.2,37.9L46.2,37.9z M44.8,43.4h-2.7v-2.7h2.7V43.4z"/>
		<path fill="#6B6B6B" d="M46.2,48.8h-5.5c-0.8,0-1.4,0.6-1.4,1.4v5.5c0,0.7,0.6,1.4,1.4,1.4l0,0h5.5c0.8,0,1.4-0.6,1.4-1.4l0,0
			v-5.5C47.5,49.4,46.9,48.8,46.2,48.8z M44.8,54.3h-2.7v-2.7h2.7V54.3z"/>
		<path fill="#6B6B6B" d="M35.3,48.8h-5.4c-0.8,0-1.4,0.6-1.4,1.4v5.5c0,0.7,0.6,1.4,1.4,1.4c0,0,0,0,0,0h5.5c0.8,0,1.4-0.6,1.4-1.4
			l0,0v-5.5C36.6,49.4,36,48.8,35.3,48.8C35.3,48.8,35.3,48.8,35.3,48.8z M33.9,54.3h-2.7v-2.7h2.7V54.3z"/>
		<path fill="#6B6B6B" d="M18.9,57h5.5c0.7,0,1.4-0.6,1.4-1.4c0,0,0,0,0,0v-5.5c0-0.7-0.6-1.4-1.4-1.4h-5.5c-0.7,0-1.4,0.6-1.4,1.4
			v5.5C17.5,56.4,18.1,57,18.9,57L18.9,57z M20.3,51.6H23v2.7h-2.7V51.6z"/>
	</g>
</g>
</svg>
