<?xml version="1.0" encoding="utf-8"?>
<!-- Generator: Adobe Illustrator 16.0.3, SVG Export Plug-In . SVG Version: 6.00 Build 0)  -->
<!DOCTYPE svg PUBLIC "-//W3C//DTD SVG 1.1//EN" "http://www.w3.org/Graphics/SVG/1.1/DTD/svg11.dtd">
<svg version="1.1" id="Capa_1" xmlns="http://www.w3.org/2000/svg" xmlns:xlink="http://www.w3.org/1999/xlink" x="0px" y="0px"
	 width="64px" height="64px" viewBox="0 0 64 64" enable-background="new 0 0 64 64" xml:space="preserve">
<g id="Capa_2">
	<g id="Capa_1-2">
		<path fill="#636363" d="M31.3,45.1c-2-0.9-3.8-2.1-5.5-3.4l0.5,18.6c0,1.7,1.7,3,3.3,3c1,0,2.3-0.4,2.8-1.1c0.3-0.3,0.7-0.4,1-0.1
			c0,0,0.1,0.1,0.1,0.1c0.5,0.6,1.8,1.1,2.8,1.1c1.5,0,3.2-1.3,3.3-3l0.5-18.6c-1.7,1.3-3.6,2.5-5.5,3.4
			C33.6,45.6,32.4,45.6,31.3,45.1z"/>
		<path fill="#636363" d="M33.1,14.9c3-0.1,5.3-3.9,5.3-6.9c0.1-3-2.3-5.4-5.2-5.5c-3-0.1-5.4,2.3-5.5,5.2c0,0.2,0,0.3,0,0.5
			C27.7,11.2,30.1,14.9,33.1,14.9z"/>
		<path fill="#636363" d="M11.9,24.2c1.6,0.4,3.2,0.8,4.8,1c1.7,0.2,2.8,0.3,4,0.3c0.2-1.9,0.5-4,0.8-6.3c-4.3,0.4-7.6-0.5-12.4-2
			c-3.5-1-5.3,4.6-1.7,5.7C8.8,23.3,10.7,23.9,11.9,24.2z"/>
		<path fill="#636363" d="M56.9,17.2c-4.8,1.5-8.1,2.4-12.4,2c0.3,2.4,0.6,4.4,0.8,6.3c1.2,0,2.3-0.1,4-0.3c1.6-0.2,3.2-0.6,4.8-1
			c1.2-0.3,3.1-0.8,4.5-1.2C62.1,21.8,60.4,16.1,56.9,17.2z"/>
		<path fill="#636363" d="M41.6,19.5c-0.1-0.7-0.7-1.3-1.4-1.3H25.8c-0.7,0-1.3,0.5-1.4,1.2c-1.1,7.3-1.6,11.7-0.6,15.2
			c1,3.6,3.5,5.8,8.6,8.4c0.4,0.2,0.9,0.2,1.3,0c5.1-2.5,7.6-4.7,8.6-8.4C43.2,31.1,42.7,26.7,41.6,19.5z M39.5,33.8
			c-0.7,2.6-2.7,4.3-6.5,6.3V28.9h-6.9c0.1-2.1,0.4-4.7,0.9-7.9h6v7.8h6.9C40,30.5,39.9,32.2,39.5,33.8L39.5,33.8L39.5,33.8z"/>
		<path fill="#636363" d="M50.9,15.9c0.7-0.1,1.3-0.3,2.1-0.5l0,0c-3.2-3.6-7.3-6.3-11.8-7.8c0,0.1,0,0.2,0,0.3c0,0.5,0,1.1-0.1,1.6
			C44.8,10.8,48.2,13,50.9,15.9z"/>
		<path fill="#636363" d="M15,15.9c2.7-2.9,6.1-5.1,9.9-6.4c-0.1-0.4-0.1-0.9-0.1-1.3c0-0.2,0-0.4,0-0.7c-4.6,1.5-8.7,4.2-11.8,7.8
			l0,0C13.7,15.5,14.4,15.7,15,15.9z"/>
		<path fill="#636363" d="M58.7,25.8c-0.6,0.2-1.2,0.4-1.8,0.5c3.2,11.9-2.8,24.4-14.2,29.2l-0.1,2.1C55.3,52.8,62.3,39,58.7,25.8
			L58.7,25.8z"/>
		<path fill="#636363" d="M8.3,32.8c0-2.2,0.3-4.4,0.9-6.5l0,0l-1.8-0.5C3.7,39,10.7,52.8,23.4,57.7l-0.1-2.1
			C14.2,51.7,8.3,42.8,8.3,32.8z"/>
	</g>
</g>
</svg>
