<?xml version="1.0" encoding="utf-8"?>
<!-- Generator: Adobe Illustrator 16.0.3, SVG Export Plug-In . SVG Version: 6.00 Build 0)  -->
<!DOCTYPE svg PUBLIC "-//W3C//DTD SVG 1.1//EN" "http://www.w3.org/Graphics/SVG/1.1/DTD/svg11.dtd">
<svg version="1.1" id="Capa_1" xmlns="http://www.w3.org/2000/svg" xmlns:xlink="http://www.w3.org/1999/xlink" x="0px" y="0px"
	 width="64px" height="64px" viewBox="0 0 64 64" enable-background="new 0 0 64 64" xml:space="preserve">
<g id="Capa_2">
	<g id="Capa_1-2">
		<path fill="#00A4D5" d="M55,47.2c-1.7,0-3.3,0.5-4.7,1.5l-9.4-7.8c2.1-2.4,2.5-5.8,1.1-8.7l8.2-6.3c3.6,2.6,8.6,1.8,11.2-1.8
			c2.6-3.6,1.8-8.6-1.8-11.2c-3.6-2.6-8.6-1.8-11.2,1.8c-2,2.7-2,6.3-0.2,9.1L40.4,30c-1.5-1.4-3.5-2.2-5.5-2.2c-0.3,0-0.5,0-0.8,0
			L31.3,17c4.1-1.6,6.1-6.3,4.4-10.4c-1.6-4.1-6.3-6.1-10.4-4.4s-6.1,6.3-4.4,10.4c1.2,3,4.2,5,7.4,5h0.2l2.9,11
			c-1.3,0.6-2.4,1.6-3.2,2.8L17.1,27c1.6-4.2-0.5-8.8-4.7-10.4C8.3,15,3.6,17.1,2,21.3c-1.6,4.2,0.5,8.8,4.7,10.4
			c3.1,1.2,6.7,0.3,8.9-2.2l11.5,4.5c-0.4,1.8-0.2,3.7,0.6,5.4l-11.4,8.2c-3.5-2.7-8.6-2.1-11.3,1.5C2.3,52.4,3,57.5,6.5,60.2
			c3.5,2.7,8.6,2.1,11.3-1.5c2-2.7,2.2-6.3,0.4-9.2l11.1-8c2.5,2.4,6.3,2.9,9.3,1.2l9.7,8c-2.5,3.7-1.5,8.7,2.2,11.1
			s8.7,1.5,11.1-2.2c2.5-3.7,1.5-8.7-2.2-11.1C58.2,47.7,56.6,47.2,55,47.2L55,47.2L55,47.2z M23.1,9.5c0-2.9,2.3-5.2,5.2-5.2
			c2.9,0,5.2,2.3,5.2,5.2c0,2.9-2.3,5.2-5.2,5.2C25.4,14.7,23.1,12.4,23.1,9.5L23.1,9.5L23.1,9.5z M9.6,29.3c-2.9,0-5.2-2.3-5.2-5.2
			s2.3-5.2,5.2-5.2s5.2,2.3,5.2,5.2c0,0,0,0,0,0C14.8,27,12.5,29.3,9.6,29.3z M55,14.3c2.9,0,5.2,2.3,5.2,5.2c0,2.9-2.3,5.2-5.2,5.2
			s-5.2-2.3-5.2-5.2c0,0,0,0,0,0C49.9,16.6,52.2,14.3,55,14.3z M11.4,59c-2.9,0-5.2-2.3-5.2-5.2s2.3-5.2,5.2-5.2
			c2.9,0,5.2,2.3,5.2,5.2l0,0C16.6,56.6,14.3,59,11.4,59z M29.7,35.7c0-2.9,2.3-5.2,5.2-5.2c2.9,0,5.2,2.3,5.2,5.2
			c0,2.9-2.3,5.2-5.2,5.2C32,40.9,29.7,38.6,29.7,35.7z M55,60.4c-2.9,0-5.2-2.3-5.2-5.2s2.3-5.2,5.2-5.2c2.9,0,5.2,2.3,5.2,5.2
			C60.2,58.1,57.9,60.4,55,60.4z"/>
	</g>
</g>
</svg>
