<?xml version="1.0" encoding="utf-8"?>
<!-- Generator: Adobe Illustrator 16.0.3, SVG Export Plug-In . SVG Version: 6.00 Build 0)  -->
<!DOCTYPE svg PUBLIC "-//W3C//DTD SVG 1.1//EN" "http://www.w3.org/Graphics/SVG/1.1/DTD/svg11.dtd">
<svg version="1.1" id="Capa_1" xmlns="http://www.w3.org/2000/svg" xmlns:xlink="http://www.w3.org/1999/xlink" x="0px" y="0px"
	 width="110px" height="51px" viewBox="0 0 110 51" enable-background="new 0 0 110 51" xml:space="preserve">
<path fill="#FFFFFF" d="M33.324,23.393c1.074,1.702,1.941,3.404,2.553,5.048c0.049,0.131,0.092,0.26,0.137,0.391
	c2.914-1.525,4.678-3.5,4.678-5.657c0-2.109-1.686-4.047-4.484-5.558c-0.053,0.153-0.104,0.305-0.162,0.46
	C35.402,19.808,34.479,21.603,33.324,23.393"/>
<path fill="#FFFFFF" d="M29.742,14.542c2.078,0.449,3.994,1.063,5.668,1.83c0.111,0.052,0.217,0.105,0.326,0.157
	c0.912-3.12,0.654-5.577-0.766-6.997c-0.865-0.866-2.119-1.301-3.672-1.301c-1.033,0-2.199,0.194-3.473,0.579
	c0.045,0.095,0.092,0.186,0.137,0.282C28.701,10.709,29.299,12.55,29.742,14.542"/>
<path fill="#FFFFFF" d="M20.488,35.039c-1.138-0.76-2.271-1.609-3.386-2.543c-1.298-0.121-2.56-0.301-3.771-0.535
	c0.473,2.143,1.116,4.064,1.89,5.678c0.133-0.047,0.265-0.092,0.4-0.141C17.205,36.908,18.845,36.074,20.488,35.039"/>
<path fill="#FFFFFF" d="M30.502,19.515c0.857,1.04,1.645,2.097,2.354,3.157c1.035-1.644,1.869-3.283,2.459-4.867
	c0.068-0.184,0.129-0.364,0.191-0.545c-1.588-0.768-3.479-1.407-5.588-1.882C30.18,16.704,30.375,18.088,30.502,19.515"/>
<path fill="#FFFFFF" d="M8.936,23.388c-1.205-1.845-2.167-3.696-2.831-5.479c-0.03-0.081-0.056-0.159-0.084-0.24
	c-2.743,1.503-4.393,3.42-4.393,5.507c0,2.135,1.727,4.09,4.584,5.608c0.021-0.059,0.039-0.115,0.062-0.174
	C6.906,26.91,7.809,25.148,8.936,23.388"/>
<path fill="#FFFFFF" d="M17.518,13.819c0.981-0.809,1.976-1.556,2.976-2.23c-1.701-1.087-3.401-1.957-5.041-2.567
	c-0.063-0.023-0.124-0.043-0.188-0.065c-0.75,1.542-1.379,3.375-1.854,5.417C14.728,14.122,16.104,13.937,17.518,13.819"/>
<path fill="#FFFFFF" d="M25.25,32.492c-1.094,0.93-2.21,1.783-3.33,2.545c1.807,1.119,3.572,1.975,5.213,2.525
	c0.76-1.596,1.391-3.49,1.855-5.602C27.787,32.193,26.535,32.371,25.25,32.492"/>
<path fill="#FFFFFF" d="M30.498,27.211c-0.115,1.287-0.285,2.539-0.512,3.744c2.006-0.455,3.811-1.061,5.344-1.783
	c-0.553-1.6-1.391-3.315-2.477-5.068C32.143,25.149,31.354,26.189,30.498,27.211"/>
<path fill="#FFFFFF" d="M21.209,35.508c-1.791,1.154-3.585,2.078-5.315,2.723c-0.106,0.039-0.212,0.074-0.316,0.111
	c1.514,2.828,3.461,4.533,5.583,4.533c2.144,0,4.109-1.744,5.631-4.627c-0.178-0.059-0.354-0.119-0.533-0.188
	C24.613,37.449,22.911,36.582,21.209,35.508"/>
<path fill="#FFFFFF" d="M12.499,31.791c-2.047-0.447-3.936-1.057-5.59-1.814c-0.088-0.039-0.17-0.082-0.256-0.123
	c-0.979,3.135-0.829,5.777,0.695,7.301c1.441,1.441,3.955,1.684,7.145,0.721c-0.046-0.094-0.092-0.186-0.136-0.281
	C13.574,35.883,12.951,33.92,12.499,31.791"/>
<path fill="#FFFFFF" d="M21.204,11.12c1.76-1.127,3.521-2.029,5.222-2.662c0.107-0.04,0.211-0.074,0.318-0.111
	c-1.516-2.829-3.462-4.534-5.584-4.534c-2.1,0-4.028,1.668-5.535,4.441c0.033,0.013,0.066,0.022,0.1,0.035
	C17.508,8.953,19.359,9.915,21.204,11.12"/>
<path fill="#FFFFFF" d="M21.915,11.596c0.984,0.677,1.964,1.42,2.927,2.226c1.4,0.118,2.762,0.302,4.066,0.551
	c-0.465-2.001-1.078-3.801-1.811-5.323c-0.133,0.046-0.264,0.091-0.398,0.141C25.143,9.769,23.529,10.585,21.915,11.596"/>
<path fill="#FFFFFF" d="M29.82,31.791c-0.451,2.129-1.076,4.092-1.857,5.803c-0.031,0.068-0.064,0.131-0.096,0.197
	c2.975,0.855,5.471,0.66,6.936-0.805c1.488-1.49,1.67-4.045,0.764-7.084c-0.053,0.023-0.104,0.051-0.156,0.074
	C33.756,30.734,31.867,31.344,29.82,31.791"/>
<path fill="#FFFFFF" d="M12.576,14.542c0.444-1.992,1.042-3.833,1.781-5.449c0.06-0.131,0.123-0.256,0.185-0.383
	c-1.358-0.43-2.6-0.647-3.689-0.647c-1.554,0-2.807,0.435-3.673,1.302c-1.452,1.451-1.688,3.991-0.698,7.214
	c0.142-0.068,0.281-0.139,0.428-0.206C8.584,15.606,10.5,14.992,12.576,14.542"/>
<path fill="#FFFFFF" d="M9.404,22.677c0.728-1.076,1.535-2.147,2.417-3.201c0.126-1.413,0.321-2.785,0.58-4.098
	c-2.149,0.484-4.075,1.139-5.681,1.926c0.039,0.111,0.075,0.22,0.116,0.332C7.447,19.276,8.317,20.976,9.404,22.677"/>
<path fill="#FFFFFF" d="M11.824,27.244c-0.878-1.035-1.687-2.089-2.416-3.149c-1.093,1.738-1.939,3.44-2.511,5.034
	c1.553,0.742,3.391,1.361,5.435,1.826C12.108,29.762,11.938,28.52,11.824,27.244"/>
<path fill="#FFFFFF" d="M23.19,23.167c0,1.107-0.898,2.006-2.006,2.006c-1.108,0-2.007-0.898-2.007-2.006
	c0-1.108,0.898-2.007,2.007-2.007C22.292,21.161,23.19,22.059,23.19,23.167"/>
<path fill="#FFFFFF" d="M23.19,18.055c0,1.107-0.898,2.006-2.006,2.006c-1.108,0-2.007-0.898-2.007-2.006
	c0-1.108,0.898-2.007,2.007-2.007C22.292,16.048,23.19,16.947,23.19,18.055"/>
<path fill="#FFFFFF" d="M19.54,16.905c0.636-0.908,1.887-1.129,2.795-0.493c0.907,0.636,1.128,1.887,0.493,2.794
	c-0.636,0.908-1.888,1.129-2.795,0.493S18.905,17.812,19.54,16.905"/>
<path fill="#FFFFFF" d="M14.899,21.61c-0.492-0.993-0.087-2.196,0.906-2.689c0.992-0.492,2.196-0.086,2.688,0.906
	c0.492,0.993,0.087,2.196-0.905,2.689C16.596,23.008,15.392,22.602,14.899,21.61"/>
<path fill="#FFFFFF" d="M16.807,27.938c-1.107-0.043-1.97-0.977-1.927-2.083c0.044-1.106,0.977-1.969,2.084-1.926
	s1.97,0.976,1.926,2.083C18.847,27.119,17.914,27.98,16.807,27.938"/>
<path fill="#FFFFFF" d="M23.274,29.295c-0.568,0.951-1.8,1.26-2.751,0.691s-1.262-1.799-0.692-2.75
	c0.567-0.951,1.8-1.261,2.751-0.693C23.533,27.111,23.844,28.344,23.274,29.295"/>
<path fill="#FFFFFF" d="M27.564,24.267c0.563,0.955,0.244,2.184-0.709,2.747c-0.955,0.563-2.186,0.246-2.748-0.709
	c-0.563-0.955-0.244-2.185,0.711-2.748C25.771,22.995,27.002,23.313,27.564,24.267"/>
<path fill="#FFFFFF" d="M25.455,18.342c1.107-0.036,2.035,0.832,2.072,1.939s-0.832,2.035-1.939,2.071s-2.035-0.832-2.07-1.939
	C23.48,19.306,24.348,18.379,25.455,18.342"/>
<path fill="#FFFFFF" d="M55.693,15.665c4.045,0,6.638,1.989,6.638,5.358v0.044c0,3.613-2.888,5.51-6.863,5.51H53.27v4.365h-4.411
	V15.665H55.693z M57.906,21.284V21.24c0-1.318-0.952-2.01-2.542-2.01H53.27v4.043h2.114C56.954,23.273,57.906,22.473,57.906,21.284"
	/>
<polygon fill="#FFFFFF" points="69.507,15.665 69.507,27.251 77.237,27.251 77.237,30.942 65.082,30.942 65.082,15.665 "/>
<rect x="80.082" y="15.665" fill="#FFFFFF" width="4.444" height="15.278"/>
<rect x="87.765" y="15.665" fill="#FFFFFF" width="4.444" height="15.278"/>
<path fill="#FFFFFF" d="M96.972,25.886c1.574,1.213,3.337,1.84,5.188,1.84c1.177,0,1.814-0.393,1.814-1.061v-0.041
	c0-0.627-0.516-0.972-2.682-1.447c-3.403-0.758-6.032-1.667-6.032-4.822v-0.043c0-2.833,2.348-4.949,6.191-4.949
	c2.715,0,4.824,0.756,6.572,2.095l-2.217,2.985c-1.468-0.975-3.062-1.514-4.477-1.514c-1.074,0-1.594,0.454-1.594,0.993v0.044
	c0,0.691,0.553,1.017,2.766,1.491c3.665,0.756,5.953,1.902,5.953,4.757v0.041c0,3.135-2.578,4.992-6.45,4.992
	c-2.841,0-5.536-0.867-7.491-2.549L96.972,25.886z"/>
</svg>
